<svg xmlns="http://www.w3.org/2000/svg" xml:space="preserve" x="0" y="0" version="1.1" viewBox="0 0 1024000 1024000"><path d="M545000 1025000H1000V1000h1024000v1024000H545000m160738-565270s-303 74-706 3c-310 151-385 380-264 940 0 0-242 80-834 40-300 469-598 937-1016 1867-183 296-449 448-1440 560-483 640-966 1278-1472 1860 0 0 54 30-624 118-692 775-1384 1550-2112 2172 0 0 157 8-396 160-248 280-496 560-753 680 0 0 162 10-343 230-235 276-470 551-703 734 0 0 91 16-632 44-1106 1017-2213 2035-3340 2970 0 0 84 22-543 77l-1023 1472s-113 27-805-230a422710 422710 0 01-2190 2176s-80 22-622-27c-280 216-560 432-833 541 0 0 105 21-650-33-926 820-1853 1640-2863 2587 0 0-150 13-668-77-277 194-554 387-828 500 0 0 80 17-554 60-474 375-947 750-1420 1000 0 0 123 22-635-53-1784 1050-3570 2098-5357 3044 0 0 101 17-696-46-3914 1836-7829 3671-11896 5646 0 0-194-75-993-420-4165 1280-8330 2557-12492 3744 0 0 90 11-593-24-816 303-1633 607-2860 998 0 0-420 8-1305-27-1807 177-3648 190-5416 556-20323 4220-40844 6470-61612 6425-14289-30-28580-78-42866 100-1760 21-3503 1381-5276 2011 0 0 112-5-160 143l-69 372s381 237 283 250c0 0 10-99 40 538 464 333 920 666 1425 1064 0 0 20 80-50 610 200 283 400 565 517 840 0 0 20-80-12 674 1017 1443 2034 2886 2972 4345 1 0 35-75 25 612a23538 23538 0 00 1785 1754s-3 311-335 965c678 720 1356 1440 2052 2213 0 0 15 56-30 597 204 286 411 571 533 850 0 0 18-82-10 665 814 1006 1627 2013 2280 3372 0 0 125-367-43 340 653 870 1306 1738 2530 2967 44390 76440 88761 152890 133180 229312 15214 26178 30545 52288 45670 78708 3 326 191 537 997 745 250 207 368 472 947 1384 796 185 1593 530 2390 531 26753 30 53506 40 80260-14 1238-3 2475-637 3771-1703l-156370-268987c3830-834 7243-1493 10614-2325 36472-9010 69044-25370 95465-52433 8874-9090 16147-19742 24520-29464 37-475 73-950 166-1448 0 0-14-59 620-174 254-546 508-1093 780-1513 0 0-128-4 414-330 215-570 430-1140 666-1628 0 0-86 10 330-354 78-353 155-706 160-974 0 0 40-104 760-116 1554-3237 3110-6475 4683-9607 0 0-108 0 564-247a741173 741173 0 00 2942-8106s48-76 743-145c972-2798 1945-5596 2878-8988 254-492 510-985 1455-1746 1324-3446 2910-6816 3930-10350 6540-22647 9328-45642 7821-69300-1117-17550-4526-34523-9568-51234-1077-3569-3447-6746-5380-10242 0 0 46-205 391-900-626-1177-1252-2353-1770-3528 0 0-20 106 31-612l-1574-2016s15-118 336-870c-2613-4830-5227-9660-7757-14508 0 0-26 82 23-682-1037-1449-2074-2898-3707-4660-5819-7844-11332-15938-17526-23473-9870-12004-22203-21308-34514-30656-1118-500-2236-1002-3255-1515 0 0-4 100-260-573-1618-800-3236-1600-4750-2414 0 0-6 104-257-582-1664-743-3326-1486-4868-2246 0 0-23 120-208-602-1278-497-2555-994-3715-1508 0 0-10 120-235-564a515305 515305 0 01-8653-3610s-4 70-323-560c-3970-1418-7938-2835-11764-4284 0 0 10 147-372-398a23503 23503 0 00-2048 5s-147-155-166-877c-5224-1919-10324-4328-15692-5672-25426-6368-51364-8237-77492-8227-56765 22-113530 4-170296 4-25137 0-50274-40-75410 98-1769 10-3530 1356-5305 1980 0 0 102 6-372 341 533 802 1066 1603 1480 2420 0 0 16-119-87 542 650 825 1298 1650 2556 2816l78882 136000c343-1287 467-1750 1048-2900 130-1816 367-3632 370-5448 26-17994 10-35988 20-53982 3-6764 77-6853 6567-6853 60812 0 121625 10 183093 513 1303 156 2606 453 3908 450 16410-48 32136 3364 47420 9154 2945 1115 5990 1970 9683 3026 17190 9675 30223 23340 38844 41330 1245 2131 2490 4263 3626 6397 0 0 18-105-35 605 497 603 994 1205 1670 1958 0 0-59 226-408 984 236 1448 338 2934 732 4338 2058 7333 4915 14530 6115 21994 1542 9595 2217 19390 2425 29118 160 7401-993 14830-1578 22145 0 0 103-8-462 517a252446 252446 0 01-535 4480s106-6-450 488c-2764 7725-5559 15440-8237 23194-240 697 267 1652 490 2824 0 0-280 198-900 232-87 540-175 1080-266 1780 0 0-130 94-828 110-910 1848-1823 3696-2747 5445 0 0 100 6-573 246-842 1588-1684 3177-2583 5223-120 330-355 503-1419 598-803 1347-1607 2693-2428 3933 0 0 108 0-378 275-202 310-403 617-609 763 0 0 161 18-473 217-337 716-674 1433-1058 2245 0 0-95 50-550 50-328 180-414 437-324 1082M327636 835506c640 154 1278 442 1917 443 24256 30 48510 51 72766-7 1214-3 2426-720 3657-1548 0 0 165-413 632-1091 129-816 370-1632 370-2448 20-62795 31-125591-42-188386-2-1476-975-2950-1953-4880-11288-19438-22522-38909-33876-58308-14690-25097-29476-50138-45028-74785-356 2056-1022 4112-1023 6168-49 106131-40 212263-40 318394v4292l542-45c343-2762 686-5523 1256-7406 65 3020 130 6042 822 9607m-53248-423812c-26226-44986-52449-89974-78723-134932-266-454-1205-515-2428-925-408 1402-1174 2804-1174 4206-54 183260-37 366520-135 549780-2 4848 1605 6304 6354 6265 23490-189 46980-66 70470-128 1753-5 3504-603 5446-1145 0 0 255 140 940-389 281-1927 804-3853 807-5780 50-31320 34-62642 34-93963 0-105959 6-211917-44-317875 0-1543-680-3085-1547-5114m12008-220018c-20-336-217-542-1010-636 0 0-386-170-670-898-1035-376-2071-1077-3110-1080-26290-60-52578-78-78867 56-1213 6-2418 1490-3134 2695 518 844 1053 1680 1550 2535 50720 87388 101330 174840 152180 262151 61700 105946 123613 211770 185407 317661a4429667 4429667 0 01 33927 59140c-2 322 178 534 985 747 262 203 390 470 975 1386 964 183 1928 524 2892 525 26573 31 53145 41 79717-8 1253-2 2505-580 4106-1355-192-458-333-946-583-1370-60775-103532-121670-206993-182302-310608-44404-75883-88480-151960-132669-227969-19884-34204-39690-68455-59394-102972" fill="#F50C25" opacity="1"/><path d="M702121 463036c348-8 614-160 1097-782 636-718 972-1110 1308-1502 0 0 242-80 395-276 320-319 447-477 520-672 0 0 304-73 485-327 365-412 504-603 598-828 0 0 95-50 328-300a41305 41305 0 00 1460-2194s-163-18 102-50c454-357 642-681 830-1005 0 0-108-1 190-104 1147-1370 1995-2637 2843-3904 349-20 584-195 1019-929 1190-1955 2065-3507 2940-5058 0 0-100-6 200-124 1247-1860 2196-3601 3146-5343 0 0 130-93 272-365 342-695 543-1120 744-1543 0 0 280-198 392-655 2805-8990 5500-17522 8192-26055 0 0-106 6 190-69 464-1690 634-3310 804-4923 3 0-100 8 220-106 2285-12280 3034-24360 1928-36805-1280-14391-3898-28196-9593-41434 0 0 58-226-178-564a78310 78310 0 01-1380-2330s-18 105-30-250c-1080-2407-2150-4460-3218-6510-9017-17523-22050-31187-39870-41106-19540-10266-39974-13460-61520-13830-63430-70-126395-70-189368-70v67970c-126 464-250 928-593 2216-26504-45700-52692-90850-79234-136482a316977 316977 0 01-2100-2996s-15 118-37-180c-343-1020-664-1737-984-2456 0 0-102-6 360-23 86686-30 172913 72 259138-118 28900-64 57142 3540 84612 12674 1 0 148 155 514 250 932 210 1497 328 2063 445 0 0-10-147 151 150 4083 1736 8003 3176 11924 4615 0 0 4-70 178 235 3017 1532 5860 2760 8704 3990 0 0 10-120 137 167 1342 840 2558 1390 3773 1942 0 0 23-120 180 147 1760 1066 3360 1866 4960 2666 1 0 6-104 123 194 1708 1128 3299 1958 4890 2788 0 0 5-100 97 185 1008 750 1926 1217 2843 1683 12630 8896 24964 18200 34834 30204 6194 7535 11707 15630 17907 23960a241880 241880 0 01 3277 4937c0-2 26-84 62 276 2490 5207 4946 10053 7400 14900 0 0-15 118 170 440 570 1020 954 1716 1337 2412 0 0 20-105 20 217 476 1514 950 2707 1426 3900-2 0-50 206 188 605 7427 19583 12217 39385 13036 59840 530 13243 354 26703-1445 39800-1915 13950-6117 27582-9321 41354-254 493-510 986-968 2050-1260 3210-2314 5848-3368 8485 0 0-48 76-220 408a916446 916446 0 00-3440 8020s108 2-190 145c-1900 3253-3503 6364-5107 9476 0 0-40 104-187 258-240 498-334 841-427 1185 0 0 86-10-200 96-497 686-710 1267-922 1848 0 0 127 4-140 72-560 565-852 1063-1146 1560-1 0 14 60-162 238-294 458-354 750-358 1052-8006 9940-15280 20592-24153 29680-26420 27064-58993 43424-95465 52434-3370 832-6784 1490-10613 2325 52209 89815 104288 179401 155869 269360-29171 324-57841 275-86513 225 10-324-110-589-652-1092-380-440-464-584-550-728-15277-26140-30608-52250-45823-78429-44418-76423-88790-152873-133542-229803a101198 101198 0 01-2000-3183s-124 367-175-110c-767-1530-1484-2587-2200-3642 0 0-20 82-27-167a5562 5562 0 00-480-1140s-16-57-156-326c-621-1045-1101-1820-1581-2598 0 0 3-310-282-629a43976 43976 0 01-1490-2123s-32 75-60-264c-991-1813-1953-3287-2914-4760 0 0-20 80-22-164a5458 5458 0 00-447-1128s-20-80-190-348a23518 23518 0 00-1277-1432s-10 100 14-96c22-195 36-575 36-575s-112 5 353-25c29065-1040 57688-1636 86250-3284 9858-569 19565-3753 29340-5743 0 0 420-8 970 64 1364-296 2180-665 2995-1035 0 0-90-10 320 0 4569-1128 8725-2269 12880-3410 0 0 194 75 598-144 4367-1934 8329-3649 12290-5364 0 0-101-17 250-28 2156-994 3960-1976 5764-2958 0 0-124-20 182-27 787-350 1268-694 1748-1038 0 0-80-17 158-22 575-34 865-167 1108-405 0 0 150-13 455-240a407550 407550 0 01 3314-2306s-105-20 142-25a5226 5226 0 00 1128-488s80-22 354-195c1050-698 1829-1223 2607-1747 0 0 114-27 380-220 640-573 1010-953 1384-1332 0 0-84-23 233-89 1460-1020 2605-1976 3748-2930 0 0-90-17 177-60 492-333 717-620 940-910-1 0-162-10 114-20 527-280 778-552 1030-823 0 0-157-9 147-59 1030-770 1758-1490 2485-2210 0 0-54-30 240-105 803-680 1312-1285 1820-1890zm-129300 369990c-11350-19624-22650-39284-34071-58866-61797-105892-123710-211715-185410-317660-50851-87313-101461-174764-152181-262152-497-856-1032-1690-1351-2874 3180-382 6160-455 9140-460 25352-56 50704-99 76055-145 0 0 385 171 680 420 390 390 485 532 579 674 19840 34230 39647 68480 59532 102685 44190 76010 88265 152086 132669 227969 60632 103615 121527 207076 182302 310608 250 424 390 912-60 1575-29316 153-57990 100-86662 48 11-330-118-598-674-1095-293-295-540-727-540-727zm-298361 1930s-256-140-821-55c-26830 85-53096 85-79635 85v-5500c3-178999 7-357997 2-536995 0-5496-107-10992-165-16488 625 244 1564 305 1830 760 26274 44957 52497 89945 78890 135625 144 1360 97 2026 97 2691-2 121140 8 242280-8 363420-2 18820-124 37637-190 56456" fill="#FFFEFE" opacity="1"/><path d="M326886 504079c14745 25064 29530 50105 44220 75202 11355 19400 22590 38870 34290 58975 475 2325 594 3982 594 5640 10 37420-11 74840 12 112260 16 25941 90 51883 140 77825 0 0-166 413-637 700-26480 286-52488 283-78497 280-65-3020-130-6041-224-9900-88-1916-145-2996-89-4531 42-10802-30-21148-17-31894 30-1484-25-2568 32-4108 34-13800-43-27145-36-40890 27-1486-30-2570 26-4110 39-16802-36-33147-25-49907 29-1820-28-3225 25-4952 37-762-36-1202-23-2018 28-1138-28-1902 29-3080 40-2120-33-3823-21-5980 25-3163-33-5882 20-9025 33-2455-46-4487-40-6970 35-3501-16-6553 43-10028 36-2458-40-4492-32-6967 28-2831-27-5221 30-8042 40-2794-30-5157-20-7962 28-2830-28-5216 26-8060 34-5802-42-11150-35-16873 28-1141-28-1907 27-3058 39-1446-35-2506-24-3981 30-1820-24-3227 33-5020 36-1444-40-2504-32-4028 30-7837-20-15210 36-23020 32-3130-45-5822-40-8915 27-1482-30-2565 24-4010 40-1105-31-1850-16-3020 30-2154-26-3884 24-5935 33-763-40-1203-34-1980 24-793-33-1249 23-2158 38-5135-35-9816-26-14836 27-795-28-1252 30-2140 50-2797-13-5163 7-7865 20-790-40-1244 6-2035-60-1003-230-1669-220-2495 345-445 416-752 390-1082" fill="#FFF" opacity="1"/><path d="M193536 275920c357 5579 465 11075 465 16570 5 178999 0 357997-3 536995v5500c26540 0 52805 0 79540 25-1282 347-3033 945-4785 950-23490 62-46982-60-70470 128-4750 40-6357-1417-6355-6266 98-183260 81-366520 135-549779 0-1402 766-2804 1473-4123" fill="#F6010C" opacity="1"/><path d="M688313 203260c-27460-8775-55702-12378-84604-12314-86225 190-172452 89-259134 169 1309-658 3070-2004 4840-2014 25135-139 50272-98 75409-98 56765 0 113530 18 170296-4 26128-10 52066 1859 77492 8227 5368 1344 10468 3753 15700 6033" fill="#F70411" opacity="1"/><path d="M326587 739983c57 1085 114 2170-113 4011-377 8560-578 16365-524 24167 39 5609 420 11215 648 16823 55 1084 110 2168-120 4008-156 11170-26 21581 104 31993 57 1080 114 2160 88 3638-426 3160-769 5920-1112 8682l-541 45v-4292c-2-106131-10-212263 40-318394 0-2056 666-4112 1425-6377 430 122 358 429-90 1215-114 1165 51 1828 216 2490 61 455 122 909-98 2015-160 3094-40 5537 80 7980 54 457 110 914-117 2064-150 5440-19 10190 113 14940 56 457 113 910-74 1869-132 1046-21 1592 90 2139 57 1730 113 3459-95 5822-150 1480-33 2327 83 3173 57 1083 114 2166-106 3977-143 3493-10 6258 124 9023 52 7373 104 14746-110 22827-142 1863-20 3017 104 4170 54 1407 108 2813-105 4878-146 1814-25 2969 96 4123 56 765 112 1530-116 3028-148 6146-10 11560 126 16973 55 2388 110 4775-111 7922-151 3197-25 5636 100 8075 57 2390 112 4780-106 7917-146 2860-17 4972 112 7085 50 3051 102 6103-122 9910-143 2868-12 4978 118 7088 58 2720 116 5438-100 8893-148 2528-24 4320 100 6110 55 763 110 1527-80 2827-140 1085-31 1630 77 2177 56 1406 113 2811-117 4988-377 14232-510 27693-526 41153-3 2950 415 5901 639 8852" fill="#F50002" opacity="1"/><path d="M274796 834690c-276-18554-154-37372-152-56190 16-121140 6-242280 8-363420 0-666 47-1332 156-2448 446 1091 1127 2633 1127 4176 50 105958 45 211916 44 317875 0 31320 17 62642-34 93963-3 1927-526 3853-1150 6044" fill="#F30000" opacity="1"/><path d="M427387 330642c-228-22098-228-44540-228-67625 62973 0 125938 0 189373 289 468 288 478 726 478 726-60812-6-121625-16-182437-15-6490 0-6564 89-6568 6853-10 17994 8 35988-20 53982-2 1816-240 3632-598 5790" fill="#F80001" opacity="1"/><path d="M798094 445791c2858-13638 7060-27272 8976-41221 1800-13096 1975-26556 1445-39798-819-20455-5609-40257-12956-59774 1617 3029 3987 6206 5064 9775 5042 16710 8450 33684 9568 51233 1507 23660-1282 46654-7820 69300-1020 3535-2607 6905-4277 10485zm-156375 47243c-9333 2007-19040 5191-28897 5760-28563 1648-57186 2245-86239 3339 1297-655 3040-2015 4800-2037 14287-177 28577-130 42866-100 20768 45 41290-2203 61612-6424 1768-367 3609-379 5858-538" fill="#F70913" opacity="1"/><path d="M406375 833642c-282-25603-357-51545-373-77486-23-37420-2-74840-12-112260 0-1658-120-3315-366-5412 337 1035 1310 2510 1312 3985 73 62795 61 125590 41 188386 0 816-240 1632-602 2787" fill="#F30000" opacity="1"/><path d="M284859 190505c-25210 410-50562 453-75914 508-2980 6-5960 80-9386 256 763-660 1968-2145 3180-2150 26290-135 52579-116 78868-57 1038 3 2074 704 3252 1443" fill="#F80210" opacity="1"/><path d="M722549 328055c5869 12859 8487 26664 9767 41055 1106 12446 357 24525-1919 36857 256-7253 1408-14682 1250-22083-210-9727-884-19523-2426-29118-1200-7465-4057-14660-6115-21994-394-1404-496-2890-557-4717zm-105210-63774c-330-249-340-687-344-906 21078 80 41513 3275 60704 13501-2716-771-5760-1627-8706-2742-15283-5790-31010-9202-47420-9155-1301-4-2604-301-4235-706" fill="#F70913" opacity="1"/><path d="M574335 835140c28378-240 57051-187 86192-107-783 337-2035 915-3288 917-26572 50-53144 40-79717 8-964 0-1928-342-3187-817zm146000-6c28377-244 57049-195 86189-156-770 330-2007 964-3246 967-26753 55-53506 44-80259 14-797-8-1594-350-2685-830zm-393013 100c25695-270 51703-267 78174-330-750 318-1963 1035-3177 1038-24255 58-48510 37-72766 7-639-1-1278-290-2230-715" fill="#F30000" opacity="1"/><path d="M728898 411267c-2414 8286-5108 16819-7944 25640-303-547-810-1502-570-2200a776105 776105 0 01 8514-23440zm63599-114286c-2615-4470-5070-9317-7603-14515 2536 4479 5150 9309 7603 14515zM671815 483130c-3563 1746-7525 3461-11814 5325 3586-1686 7500-3521 11814-5325zm-12888 5367c-3756 1313-7912 2454-12482 3629 3752-1245 7917-2523 12482-3630" fill="#F70913" opacity="1"/><path d="M702814 208766c-3762-1125-7682-2565-11835-4286a123796 123796 0 01 11835 4286" fill="#F70411" opacity="1"/><path d="M784814 474502c1243-3106 2847-6217 4737-9523a76557 76557 0 01-4730 9523zm8945-18076c707-2603 1762-5240 3040-8154-747 2523-1720 5320-3040 8154" fill="#F70913" opacity="1"/><path d="M711743 212964c-2731-888-5575-2116-8622-3630a63917 63917 0 01 8622 3630" fill="#F70411" opacity="1"/><path d="M790086 464765c754-2440 1844-5002 3107-7852-808 2385-1790 5057-3107 7852zm-72367-146510c1266 1818 2335 3870 3469 6276-1178-1778-2422-3910-3469-6276zm-39870 161883c-1426 1020-3230 2002-5384 3047 1435-986 3220-2035 5383-3047zm41380-40492c-600 1734-1550 3476-2791 5385 620-1681 1530-3530 2790-5385zM528090 506222c977 1096 1939 2570 2969 4375-950-1112-1970-2555-2970-4375zm256807-224425c-990-1102-1954-2585-3003-4400 954 1120 1990 2569 3003 4400" fill="#F70913" opacity="1"/><path d="M720780 217885c-1475-457-3076-1257-4895-2315 1445 486 3107 1230 4895 2315zm5010 2990c-1464-495-3055-1325-4815-2446 1450 508 3068 1309 4814 2445" fill="#F70411" opacity="1"/><path d="M715896 445225c-539 1431-1414 2983-2575 4710 560-1413 1400-3002 2580-4710zm-21091 23899c-782 941-1925 1897-3375 2960 800-911 1907-1929 3375-2960zm35084-62840c112 1356-58 2974-516 4720-114-1401 60-2930 516-4720zm-17973 44845c-491 1230-1340 2498-2478 3921 513-1190 1317-2537 2478-3921" fill="#F70913" opacity="1"/><path d="M729016 222852c-1077-240-1995-707-3053-1452 977 224 2095 725 3053 1452zm-13343-7797c-1123-191-2340-743-3740-1574 1092 219 2370 716 3740 1574" fill="#F70411" opacity="1"/><path d="M535083 518226c731 682 1448 1738 2296 3093-683-706-1496-1713-2296-3093zm149732-42115c-627 720-1630 1412-2896 2269a15595 15595 0 01 2890-2269zM795460 303978c-647-846-1122-2039-1651-3554 570 854 1192 2030 1650 3554" fill="#F70913" opacity="1"/><path d="M345181 194053c634 508 1216 1347 1847 2496-600-515-1250-1340-1847-2496" fill="#F70411" opacity="1"/><path d="M532688 513948c645 450 1125 1226 1736 2243a7135 7135 0 01-1736-2243zm156390-40392c-432 652-1210 1177-2230 1847a7692 7692 0 01 2230-1847zM537390 521958c630 545 1175 1442 1798 2650-576-558-1230-1428-1798-2650" fill="#F70913" opacity="1"/><path d="M343974 191255c557 550 878 1270 1280 2280a6336 6336 0 01-1280-2280" fill="#F70411" opacity="1"/><path d="M699720 465074c-387 676-1114 1396-2127 2242 405-648 1097-1423 2128-2242zm8267-8820c-92 550-500 1197-1119 2047 128-514 465-1230 1120-2046zM793870 299850c-410-337-792-1034-1325-2006 351 365 851 1006 1325 2006zM645784 492063c-474 387-1290 756-2448 1008 473-412 1290-720 2448-1001zm-114707 19150c407 258 809 860 1358 1706-357-291-860-827-1358-1706zm190062-186076c407 310 789 973 1317 1900-350-340-847-942-1317-1900zm-19340 137950c-187 554-696 1160-1488 1868 208-537 690-1176 1490-1867zm-21958 16046c-164 322-645 665-1432 1078 168-300 641-680 1432-1071" fill="#F70913" opacity="1"/><path d="M690708 204043c-375 155-940 38-1770-204 352-105 966-87 1770 204" fill="#F70411" opacity="1"/><path d="M690873 472157c-58 352-430 732-1035 1260 85-314 403-773 1035-1260zm92115 5574c-59-418 154-1000 641-1727 60 424-155 994-641 1727zm-1240 1738c-23-440 270-938 822-1566 3 415-251 962-822 1566zm-61464-41722c108 407-93 831-433 1446-52-350 36-889 433-1446zm-194098 65345c354 70 723 457 1237 1081-310-96-766-430-1237-1080zm254910-22167c-180-412-120-703 144-1150 112 308 76 783-145 1150zm-76866-20192c-40 410-376 803-952 1290 58-373 357-841 952-1290" fill="#F70913" opacity="1"/><path d="M286328 191820c-163 0-257-140-436-523 287-163 484 43 436 522" fill="#F80210" opacity="1"/><path d="M572745 833164c76-138 324 294 395 533-292 137-472-75-395-533zm146017-5c162 5 247 150 410 533-297 144-484-67-410-533" fill="#F30000" opacity="1"/><path d="M534568 516814c180 27 337 325 545 876-156-34-363-320-545-876zm-6965-11994c184 29 332 323 524 865-158-35-358-317-524-865zm-1520-2643c136-74 122 306 150 494 26 189-355-48-355-48s68-372 204-446zm155081-23538c16 283-274 416-850 490 38-148 315-341 850-490zm102884-2871c-116-161-23-505 254-1044 108 156 30 509-254 1044zm-97857-168c-22 187-316 348-860 567 30-159 310-375 860-567zm9840-7350c28 180-197 468-690 847-30-186 209-461 690-847zm1120-877c24 196-227 466-750 828-23-190 225-470 750-821zm8083-7604c127 230 7 388-295 580-299-236-220-465 290-580zm1055-1120c134 225-5 416-337 675-304-238-218-496 337-675zm2706-3412c55 187-133 510-584 949-62-195 140-503 584-949" fill="#F70913" opacity="1"/><path d="M326700 739527c-337-2495-755-5445-752-8396 16-13460 150-26920 441-40738 275 15988 350 32333 310 49134zm10 45000c-340-5150-721-10757-760-16366-54-7802 147-15606 440-23766 277 12988 354 26332 320 40133zm-15 36003c-243-9957-373-20369-303-31138 273 9990 345 20336 303 31138zm17-204000a266227 266227 0 01-318-16140c276 4990 352 10338 318 16140zm-14-81998a202804 202804 0 01-308-14143c273 4327 346 9008 308 14143zm19 26018c-243-2328-376-5093-316-8186 271 2364 348 5056 316 8186zm-11 72002c-240-2008-365-4447-297-7203 266 2046 338 4410 297 7203zm-4-114996c-233-2012-353-4455-274-7214 260 2050 324 4417 274 7214zm4 147003c-242-1686-373-3796-315-6213 268 1726 347 3758 315 6213zm2-16998c-240-1682-368-3800-306-6220 266 1730 342 3769 306 6220zm-2 32017c-236-1375-360-3166-295-5247 262 1417 334 3125 295 5247zm7-91970c-234-770-357-1923-297-3322 257 816 333 1876 297 3320zm-10 9000c-231-770-352-1924-290-3323 256 816 330 1876 290 3322zm-2-48974c-221-485-340-1331-280-2387 250 536 320 1280 280 2387zm10-8956c-214-225-330-770-274-1480 237 277 310 717 278 1480zm10-31014c-272-325-437-990-500-1993 270 325 440 990 500 1994zm-16 177010c-216-223-325-770-270-1480 235 280 308 720 270 1480" fill="#F50C25" opacity="1"/></svg>
